<?xml version="1.0" standalone="no"?>
<!DOCTYPE svg PUBLIC "-//W3C//DTD SVG 20010904//EN" "http://www.w3.org/TR/2001/REC-SVG-20010904/DTD/svg10.dtd">
<svg version="1.0" xmlns="http://www.w3.org/2000/svg" width="200.000000pt" height="200.000000pt"
    viewBox="0 0 200.000000 200.000000" preserveAspectRatio="xMidYMid meet">

    <g transform="translate(0.000000,200.000000) scale(0.100000,-0.100000)" fill="#FD7E13" stroke="none">
        <path d="M884 1744 c-28 -7 -78 -23 -110 -34 -33 -12 -97 -33 -144 -47 -47
-13 -89 -29 -94 -34 -12 -11 1 -66 69 -279 29 -91 61 -196 72 -235 13 -49 24
-71 36 -73 18 -4 100 18 172 45 22 9 80 26 130 38 49 12 93 28 98 36 6 9 0 45
-16 99 -51 174 -150 485 -156 491 -3 4 -29 1 -57 -7z m60 -54 c5 -19 25 -84
43 -145 63 -201 112 -369 110 -371 -1 -1 -47 -14 -102 -29 -55 -15 -113 -33
-130 -39 -16 -7 -44 -17 -61 -23 -30 -10 -31 -10 -43 36 -6 25 -25 89 -41 141
-83 269 -110 364 -103 370 7 7 30 14 163 58 25 8 54 18 65 23 63 26 87 21 99
-21z m-331 -140 c10 -36 45 -157 79 -268 41 -139 57 -207 50 -214 -15 -15 -27
-4 -40 39 -6 21 -41 137 -77 258 -37 121 -69 228 -72 238 -4 15 0 18 18 15 19
-2 26 -15 42 -68z" />
        <path d="M773 1626 c-45 -17 -85 -35 -90 -40 -5 -5 -2 -7 7 -4 125 43 180 64
180 71 0 10 -5 9 -97 -27z" />
        <path d="M792 1578 c-45 -17 -80 -33 -78 -35 7 -7 176 51 176 60 0 10 -7 9
-98 -25z" />
        <path d="M915 1199 c-95 -23 -110 -28 -103 -35 6 -5 196 41 205 50 10 9 -15 6
-102 -15z" />
        <path d="M1033 1002 c-7 -4 -19 -44 -28 -87 -8 -44 -21 -102 -29 -130 -19 -66
-46 -210 -46 -245 0 -27 4 -29 58 -40 31 -7 90 -21 130 -31 65 -17 141 -33
455 -97 52 -11 80 -13 87 -6 6 6 17 51 26 100 8 49 25 143 38 209 41 205 43
180 -17 198 -29 9 -92 23 -142 32 -122 22 -204 39 -374 74 -79 17 -144 31
-145 31 0 0 -7 -4 -13 -8z m35 -22 c10 0 67 -12 127 -26 61 -14 193 -41 295
-59 201 -37 246 -48 243 -58 -2 -4 -3 -14 -3 -23 0 -19 -1 -19 -185 21 -66 14
-205 44 -309 66 -103 21 -192 41 -196 44 -4 2 -5 17 -2 32 3 16 7 22 9 16 3
-7 12 -13 21 -13z m197 -100 c105 -22 250 -52 323 -67 150 -32 142 -21 116
-138 -8 -38 -23 -119 -33 -178 -10 -59 -21 -110 -23 -113 -3 -3 -54 6 -114 20
-60 14 -165 37 -234 51 -204 41 -341 73 -347 79 -8 8 11 111 49 268 29 118 33
127 52 123 12 -3 107 -23 211 -45z" />
        <path d="M1060 960 c0 -5 5 -10 10 -10 6 0 10 5 10 10 0 6 -4 10 -10 10 -5 0
-10 -4 -10 -10z" />
        <path d="M1100 950 c0 -5 5 -10 10 -10 6 0 10 5 10 10 0 6 -4 10 -10 10 -5 0
-10 -4 -10 -10z" />
        <path d="M1150 939 c0 -5 5 -7 10 -4 6 3 10 8 10 11 0 2 -4 4 -10 4 -5 0 -10
-5 -10 -11z" />
        <path d="M1070 852 c0 -5 15 -12 33 -15 17 -4 73 -15 122 -26 50 -10 92 -17
94 -15 5 5 -11 10 -124 35 -55 12 -106 24 -112 26 -7 3 -13 1 -13 -5z" />
        <path d="M1375 758 c-4 -24 -16 -89 -27 -146 -11 -58 -17 -107 -12 -112 5 -4
45 -16 89 -25 44 -10 102 -22 128 -28 37 -8 51 -7 56 2 10 16 43 209 45 258
l1 37 -105 27 c-58 16 -119 28 -137 28 -29 1 -32 -2 -38 -41z m180 -2 c52 -13
90 -27 89 -34 -1 -7 -2 -28 -2 -47 -2 -27 -6 -35 -21 -35 -11 0 -38 -16 -61
-35 -23 -19 -46 -35 -51 -35 -5 0 -19 16 -31 35 -28 43 -52 52 -84 30 -14 -9
-27 -15 -28 -13 -1 2 4 40 12 86 l15 83 36 -6 c20 -3 77 -16 126 -29z" />
        <path d="M1496 724 c-21 -21 -20 -37 3 -58 29 -26 65 -17 69 17 6 50 -38 75
-72 41z m52 -6 c15 -15 16 -45 2 -53 -6 -3 -19 -3 -30 0 -22 7 -28 50 -7 58
19 8 22 8 35 -5z" />
        <path d="M1063 783 c9 -8 230 -54 235 -48 7 6 -9 11 -123 34 -109 23 -122 24
-112 14z" />
        <path d="M1053 714 c10 -10 227 -52 227 -44 0 4 -48 17 -107 29 -116 23 -130
24 -120 15z" />
        <path d="M1065 635 c45 -15 117 -20 79 -5 -12 5 -43 11 -70 14 l-49 5 40 -14z" />
        <path d="M605 725 c-16 -7 -70 -27 -120 -44 -229 -78 -255 -91 -255 -129 0 -8
21 -73 47 -144 46 -129 74 -174 103 -164 16 5 202 73 235 86 11 4 55 21 99 36
51 19 82 36 88 49 7 16 -2 53 -36 150 -59 168 -87 195 -161 160z m76 -24 l23
-18 -24 -8 c-17 -5 -27 -3 -36 10 -26 35 0 46 37 16z m-26 -113 c21 -62 47
-130 57 -151 19 -39 17 -57 -7 -57 -16 0 -141 -41 -218 -71 -28 -11 -56 -18
-63 -15 -7 3 -22 38 -34 78 -12 40 -32 106 -46 147 -14 40 -24 74 -22 75 2 1
14 7 28 13 23 10 45 18 190 71 30 11 60 20 66 21 6 0 28 -50 49 -111z m68 42
c15 -40 15 -40 -10 -46 -29 -8 -39 1 -48 43 -6 31 -3 34 36 42 3 0 13 -17 22
-39z m-400 -114 c21 -64 23 -75 10 -80 -29 -12 -41 -6 -52 26 -11 31 -3 47 22
48 4 0 7 4 7 9 0 4 -11 6 -24 4 -31 -6 -43 23 -20 48 10 11 20 19 25 19 4 0
18 -33 32 -74z m431 22 c7 -36 8 -33 -21 -42 -19 -6 -25 -2 -33 20 -14 36 -6
54 23 54 19 0 26 -7 31 -32z m25 -80 c11 -32 3 -47 -26 -48 -8 0 -33 48 -33
66 0 2 24 10 42 13 3 0 11 -13 17 -31z m-417 -78 c2 -29 -1 -36 -18 -38 -16
-2 -23 5 -31 33 -11 33 -10 37 10 45 28 10 36 3 39 -40z m28 -76 c13 -34 13
-34 -10 -34 -21 0 -45 34 -35 50 11 19 35 10 45 -16z" />
        <path d="M440 547 c0 -25 37 -134 50 -150 8 -9 120 115 120 132 0 16 -38 29
-109 37 -60 7 -61 6 -61 -19z" />
    </g>
</svg>